<svg width="12" height="12" viewBox="0 0 12 12" fill="none" xmlns="http://www.w3.org/2000/svg">
    <path d="M6 11C3.23857 11 1 8.7614 1 6C1 3.23857 3.23857 1 6 1C8.7614 1 11 3.23857 11 6C11 8.7614 8.7614 11 6 11ZM4.85501 9.8337C4.37371 8.81295 4.07866 7.6871 4.01366 6.5H2.03095C2.229 8.08825 3.3582 9.38735 4.85501 9.8337ZM5.01535 6.5C5.09055 7.7194 5.4389 8.86485 6 9.876C6.5611 8.86485 6.90945 7.7194 6.98465 6.5H5.01535ZM9.96905 6.5H7.98635C7.92135 7.6871 7.6263 8.81295 7.145 9.8337C8.6418 9.38735 9.771 8.08825 9.96905 6.5ZM2.03095 5.5H4.01366C4.07866 4.31289 4.37371 3.18704 4.85501 2.16628C3.3582 2.61267 2.229 3.91175 2.03095 5.5ZM5.01535 5.5H6.98465C6.90945 4.28061 6.5611 3.13513 6 2.124C5.4389 3.13513 5.09055 4.28061 5.01535 5.5ZM7.145 2.16628C7.6263 3.18704 7.92135 4.31289 7.98635 5.5H9.96905C9.771 3.91175 8.6418 2.61267 7.145 2.16628Z" fill="black"/>
</svg>
    